<svg xmlns="http://www.w3.org/2000/svg" width="18" height="18" viewBox="0 0 18 18" fill="none"><path fill="currentColor" d="m11.086 14.775-.443-.347.443.347Zm-4.172 0-.442.348.442-.348ZM9 16.505v-.563.562Zm5.438-9.298c0 .92-.48 2.15-1.235 3.485-.743 1.313-1.702 2.643-2.56 3.736l.885.694c.875-1.115 1.872-2.494 2.654-3.876.77-1.36 1.38-2.809 1.38-4.04h-1.124Zm-7.081 7.221c-.858-1.094-1.817-2.423-2.56-3.736-.755-1.335-1.234-2.566-1.234-3.485H2.437c0 1.23.612 2.68 1.381 4.039.782 1.382 1.78 2.761 2.654 3.877l.885-.695ZM3.562 7.207c0-3.295 2.473-5.894 5.438-5.894V.188c-3.662 0-6.563 3.182-6.563 7.019h1.126ZM9 1.313c2.965 0 5.438 2.599 5.438 5.894h1.124c0-3.837-2.9-7.02-6.562-7.02v1.125Zm1.643 13.115c-.464.592-.77.979-1.044 1.228-.25.226-.416.286-.599.286v1.125c.547 0 .971-.23 1.356-.579.36-.327.733-.805 1.172-1.365l-.885-.695Zm-4.171.694c.44.561.812 1.039 1.172 1.366.385.35.81.579 1.356.579v-1.125c-.183 0-.35-.06-.6-.286-.273-.25-.579-.636-1.043-1.228l-.885.694ZM6.187 7.5A2.813 2.813 0 0 0 9 10.313V9.187A1.688 1.688 0 0 1 7.312 7.5H6.188ZM9 10.313A2.813 2.813 0 0 0 11.813 7.5h-1.126c0 .932-.755 1.688-1.687 1.688v1.124ZM11.813 7.5A2.813 2.813 0 0 0 9 4.687v1.125c.932 0 1.688.756 1.688 1.688h1.124ZM9 4.687A2.813 2.813 0 0 0 6.187 7.5h1.125c0-.932.756-1.688 1.688-1.688V4.688Z"/></svg>
