<svg xmlns="http://www.w3.org/2000/svg" width="18" height="18" viewBox="0 0 18 18" fill="none"><g clip-path="url(#a)"><path fill="currentColor" d="m3.29 15.947.393-.64-.392.64ZM2.054 14.71l.64-.391-.64.391Zm13.894 0-.64-.391.64.391Zm-1.238 1.238-.391-.64.391.64Zm0-11.644-.391.64.391-.64Zm1.238 1.238-.64.391.64-.391ZM3.291 4.303l.392.64-.392-.64ZM2.053 5.54l.64.391-.64-.391ZM13.858 1.91l.54-.52-.54.52Zm-10.975.258.453.598-.453-.598Zm-.742.774.615.429-.615-.429Zm12.109.906H15v-.004l-.75.004Zm-.477 6.55a.75.75 0 1 0 0-1.5v1.5Zm-2.046-1.5a.75.75 0 0 0 0 1.5v-1.5ZM7.875 4.5h2.25V3h-2.25v1.5Zm2.25 11.25h-2.25v1.5h2.25v-1.5Zm-2.25 0c-1.242 0-2.12 0-2.804-.066-.671-.064-1.075-.184-1.388-.376l-.784 1.279c.588.36 1.249.516 2.03.59.77.074 1.733.073 2.946.073v-1.5ZM.75 10.125c0 1.213 0 2.175.072 2.946.075.781.23 1.442.591 2.03l1.28-.784c-.193-.313-.313-.717-.377-1.388-.065-.683-.066-1.562-.066-2.804H.75Zm2.933 5.183a2.999 2.999 0 0 1-.99-.99l-1.28.783A4.5 4.5 0 0 0 2.9 16.587l.784-1.28Zm6.442 1.942c1.213 0 2.175 0 2.946-.072.781-.075 1.442-.23 2.03-.591l-.784-1.28c-.313.193-.717.313-1.388.377-.683.065-1.562.066-2.804.066v1.5Zm5.183-2.932a2.998 2.998 0 0 1-.99.99l.783 1.279a4.5 4.5 0 0 0 1.486-1.486l-1.28-.784Zm-.99-9.376a3 3 0 0 1 .99.99l1.279-.783A4.5 4.5 0 0 0 15.1 3.663l-.784 1.28ZM7.875 3C6.662 3 5.7 3 4.929 3.072c-.781.075-1.442.23-2.03.591l.784 1.28c.313-.193.717-.313 1.388-.377C5.754 4.5 6.633 4.5 7.875 4.5V3ZM2.25 10.125c0-1.242 0-2.12.066-2.804.064-.671.184-1.075.376-1.388l-1.279-.784c-.36.588-.516 1.249-.59 2.03C.748 7.95.75 8.912.75 10.125h1.5Zm.649-6.462A4.5 4.5 0 0 0 1.413 5.15l1.28.784a3 3 0 0 1 .99-.99l-.784-1.28Zm4.64-1.413h4.027V.75H7.54v1.5Zm4.027 0c.655 0 1.068.002 1.369.044.276.039.346.098.381.135L14.4 1.391c-.358-.373-.801-.519-1.256-.583-.43-.06-.966-.058-1.577-.058v1.5ZM7.54.75C6.299.75 5.306.749 4.514.838c-.807.091-1.492.284-2.084.732l.906 1.196c.29-.22.675-.361 1.347-.437.687-.078 1.581-.079 2.857-.079V.75ZM2.25 7.797c0-1.328.001-2.266.076-2.99.074-.71.213-1.124.43-1.436l-1.23-.858c-.424.608-.606 1.309-.692 2.14C.75 5.47.75 6.5.75 7.797h1.5Zm.18-6.227a4.18 4.18 0 0 0-.904.943l1.23.858a2.68 2.68 0 0 1 .58-.605L2.43 1.57ZM15 3.844c-.002-.506-.013-.96-.08-1.343-.07-.401-.211-.787-.521-1.11l-1.083 1.038c.036.037.088.108.127.33.042.24.055.574.057 1.092l1.5-.007ZM.75 7.797c0 .725-.015 1.403 0 1.973l1.5-.04c-.015-.546 0-1.155 0-1.933H.75Zm15.375 3.146h-4.398v1.5h4.398v-1.5ZM8.932 9.648a2.795 2.795 0 0 0 2.795 2.795v-1.5c-.715 0-1.295-.58-1.295-1.295h-1.5Zm1.5 0c0-.716.58-1.296 1.295-1.296v-1.5a2.795 2.795 0 0 0-2.795 2.796h1.5Zm3.34-.75h-2.045v1.5h2.046v-1.5ZM10.126 4.5c1.04 0 1.83 0 2.466.04.636.039 1.064.115 1.393.24l.532-1.403c-.536-.203-1.138-.292-1.832-.335C11.99 3 11.148 3 10.125 3v1.5Zm3.859.28c.122.046.232.1.334.162l.783-1.279a3.475 3.475 0 0 0-.585-.286l-.532 1.402Zm-.484-.932v.23H15v-.23h-1.5Zm-1.773 4.504h4.731v-1.5h-4.73v1.5Zm5.523 1.773c0-1.029 0-1.874-.043-2.57l-1.497.094c.04.638.04 1.43.04 2.476h1.5Zm-.043-2.57c-.06-.95-.204-1.728-.62-2.406l-1.28.784c.223.363.348.844.403 1.716l1.497-.093Zm-1.457 2.57c0 .591 0 1.103-.008 1.556l1.5.025c.008-.468.008-.993.008-1.581h-1.5Zm-.008 1.556c-.024 1.473-.134 2.147-.434 2.637l1.279.783c.54-.881.631-1.953.655-3.395l-1.5-.025Zm.383.762h.367v-1.5h-.367v1.5Z"/></g><defs><clipPath id="a"><path fill="#fff" d="M0 0h18v18H0z"/></clipPath></defs></svg>
