<svg xmlns="http://www.w3.org/2000/svg" width="18" height="18" viewBox="0 0 18 18" fill="none"><path stroke="currentColor" stroke-width="1.5" d="M1.956 4.236C1.5 5.202 1.5 6.581 1.5 9c0 2.812 0 4.218.716 5.204.231.319.511.598.83.83.986.716 2.392.716 5.204.716h1.5c2.812 0 4.218 0 5.204-.716a3.75 3.75 0 0 0 .83-.83c.716-.986.716-2.392.716-5.204 0-2.437 0-3.818-.466-4.784m-14.078.02c.074-.157.16-.302.26-.44a3.75 3.75 0 0 1 .83-.83c.986-.716 2.392-.716 5.204-.716h1.5c2.812 0 4.218 0 5.204.716.319.231.598.511.83.83.095.132.178.27.25.42m-14.078.02.294.264 1.447 1.447c2.5 2.5 3.75 3.75 5.303 3.75s2.803-1.25 5.303-3.75L15.75 4.5l.284-.284"/></svg>
