<svg xmlns="http://www.w3.org/2000/svg" width="24" height="24" viewBox="0 0 24 24" fill="none"><path fill="#FAFAFA" d="M1.97 1.757a1 1 0 0 0-1.94.486l1.94-.486Zm3.796 15.028.6-.799-.6.8ZM3.02 10.252l.973-.233-.973.233Zm2.565 6.391.637-.77-.637.77Zm16.433-5.9.973.233-.973-.234Zm-2.13 5.615-.7-.714.7.714Zm-.849.67.531.847-.53-.848Zm2.902-10.272.686-.727-.686.727Zm.362.459.867-.498-.867.498ZM14 10a1 1 0 1 0 0 2v-2Zm3 3a1 1 0 1 0 0 2v-2ZM2.053 7.21h16.392v-2H2.053v2Zm11.03 9.58h-.504v2h.505v-2Zm-9.09-6.771-.968-4.042-1.945.467.969 4.04 1.945-.465Zm-.97-4.051L1.97 1.758l-1.94.485 1.053 4.21 1.94-.485Zm9.556 10.822c-1.85 0-3.151-.002-4.16-.12-.984-.114-1.58-.328-2.052-.684l-1.202 1.598c.862.649 1.847.937 3.023 1.073 1.15.134 2.588.133 4.391.133v-2ZM2.05 10.485c.42 1.753.753 3.151 1.152 4.24.407 1.111.916 2.002 1.748 2.69l1.274-1.542c-.456-.377-.804-.906-1.144-1.836-.35-.954-.654-2.22-1.085-4.018l-1.945.466Zm4.318 5.501a4.002 4.002 0 0 1-.144-.113l-1.274 1.541c.07.059.142.115.216.17l1.202-1.598Zm6.717 2.803c1.56 0 2.803.002 3.807-.1 1.024-.103 1.892-.32 2.68-.814L18.51 16.18c-.43.269-.96.432-1.82.52-.88.088-2.006.09-3.606.09v2Zm6.105-3.145a4.005 4.005 0 0 1-.68.536l1.062 1.695c.368-.23.71-.5 1.02-.804l-1.402-1.427Zm-.744-8.433c.999 0 1.657.001 2.14.06.468.057.607.152.67.212l1.373-1.454c-.514-.485-1.15-.664-1.8-.743-.634-.077-1.436-.075-2.383-.075v2Zm4.547 3.765c.22-.921.409-1.701.482-2.335.074-.65.049-1.311-.303-1.924l-1.734.996c.043.076.103.233.05.7-.056.485-.207 1.125-.44 2.096l1.945.467Zm-1.736-3.493a.999.999 0 0 1 .18.23l1.735-.996a2.998 2.998 0 0 0-.543-.688l-1.372 1.454ZM21 13h-4v2h4v-2Zm.957-3H14v2h7.957v-2Zm-.91.51-.062.257 1.945.466.062-.257-1.945-.467Zm-.062.257c-.298 1.243-.527 2.18-.767 2.929l1.906.608c.266-.832.512-1.847.806-3.07l-1.945-.467Zm-.767 2.929c-.32 1.003-.625 1.551-1.029 1.948l1.401 1.427c.741-.727 1.172-1.633 1.534-2.767l-1.905-.608ZM21 15h.171v-2h-.17v2ZM10.474 20.947a1.053 1.053 0 1 1-2.106 0 1.053 1.053 0 0 1 2.106 0ZM16.79 20.947a1.053 1.053 0 1 1-2.106 0 1.053 1.053 0 0 1 2.106 0Z"/></svg>
