<svg xmlns="http://www.w3.org/2000/svg" width="100" height="44" viewBox="0 0 100 44" fill="none"><path fill="#141414" d="M21.523 19.422h4.5L30.295 28h-3.082l-.815-1.43h-5.232l-.82 1.43h-3.082l4.26-8.578Zm2.461 1.916h-.422L22.15 24.35h3.252l-1.418-3.012Zm19.67-1.916V28h-4.318l-4.523-6.346a1.332 1.332 0 0 1-.083-.175 1.049 1.049 0 0 0-.11-.211c-.036-.055-.075-.082-.118-.082-.024 0-.035.02-.035.058 0 .047.04.184.123.41.086.227.129.37.129.428V28h-2.643v-8.578h4.319l4.511 6.346c.012.015.035.066.07.152.04.082.08.156.124.223.043.062.084.093.123.093.023 0 .035-.023.035-.07 0-.043-.041-.178-.123-.404-.078-.227-.117-.37-.117-.428v-5.912h2.636Zm4.893 5.144v1.36h4.57c.235 0 .42-.057.557-.17.14-.113.21-.274.21-.48 0-.274-.064-.46-.193-.557-.129-.102-.32-.153-.574-.153h-4.57Zm-2.643-5.144h7.67c.211 0 .393.006.545.017.156.008.332.032.528.07.199.036.367.087.503.153.137.063.276.154.416.276.145.12.26.265.346.433.09.168.162.377.217.627.055.246.082.527.082.844 0 .449-.082.824-.246 1.125-.164.3-.373.51-.627.627.793.347 1.19 1.023 1.19 2.027 0 .867-.206 1.48-.616 1.84-.406.36-1.082.539-2.027.539h-7.98v-8.578Zm2.643 2.074v1.154h4.676c.441 0 .662-.193.662-.58 0-.383-.22-.574-.662-.574h-4.676Zm20.566-2.074v5.22c0 .329-.01.62-.029.874-.016.25-.05.486-.106.709a3.591 3.591 0 0 1-.187.568c-.066.16-.166.309-.299.445a2.268 2.268 0 0 1-.404.334c-.14.086-.326.164-.557.235-.23.07-.463.125-.697.164-.234.035-.527.064-.879.088-.348.023-.695.039-1.043.046-.348.008-.768.012-1.26.012s-.914-.004-1.265-.012a23.85 23.85 0 0 1-1.05-.046 11.01 11.01 0 0 1-.878-.088 5.528 5.528 0 0 1-.691-.164 2.458 2.458 0 0 1-.557-.235 2.383 2.383 0 0 1-.398-.334 1.565 1.565 0 0 1-.3-.445 4.019 4.019 0 0 1-.181-.574 4.9 4.9 0 0 1-.105-.71c-.016-.25-.024-.538-.024-.866v-5.221h2.643v5.22c0 .18.008.325.023.434.02.11.063.217.129.322.07.106.164.186.281.24.121.055.287.106.498.153.215.043.471.072.768.088.3.015.67.023 1.107.023.434 0 .8-.008 1.096-.023.297-.016.553-.045.768-.088.215-.047.382-.098.503-.152a.666.666 0 0 0 .288-.24.847.847 0 0 0 .134-.323c.02-.11.03-.254.03-.433v-5.221h2.642Zm1.067 0h3.615l2.209 2.818c.102.137.176.301.223.492.046.188.074.34.082.457.011.118.029.176.052.176.028 0 .045-.058.053-.175.012-.118.041-.27.088-.458.047-.191.121-.355.223-.492l2.203-2.818h3.615l-4.899 5.613V28h-2.636v-2.965l-4.828-5.613Z"/></svg>
