<svg xmlns="http://www.w3.org/2000/svg" width="66" height="10" fill="none"><path fill="#fff" d="M4.523.422h4.5L13.295 9h-3.082l-.815-1.43H4.166L3.346 9H.264L4.524.422Zm2.461 1.916h-.421L5.15 5.35h3.252L6.984 2.338ZM26.654.422V9h-4.318l-4.523-6.346a1.333 1.333 0 0 1-.082-.175 1.048 1.048 0 0 0-.112-.211c-.035-.055-.074-.082-.117-.082-.023 0-.035.02-.035.058 0 .047.04.184.123.41.086.227.129.37.129.428V9h-2.643V.422h4.319l4.511 6.346c.012.015.035.066.07.152.04.082.08.156.124.223.043.062.084.093.123.093.023 0 .035-.023.035-.07 0-.043-.041-.178-.123-.404-.078-.227-.117-.37-.117-.428V.422h2.636Zm4.893 5.144v1.36h4.57c.235 0 .42-.057.557-.17.14-.113.21-.274.21-.48 0-.274-.064-.46-.193-.557-.129-.102-.32-.153-.574-.153h-4.57ZM28.904.422h7.67c.211 0 .393.006.545.017.156.008.332.032.528.07.199.036.367.087.503.153.137.063.276.154.416.275.145.122.26.266.346.434.09.168.162.377.217.627.055.246.082.527.082.844 0 .449-.082.824-.246 1.125-.164.3-.373.51-.627.627.793.347 1.19 1.023 1.19 2.027 0 .867-.206 1.48-.616 1.84-.406.36-1.082.539-2.027.539h-7.98V.422Zm2.643 2.074V3.65h4.676c.441 0 .662-.193.662-.58 0-.382-.22-.574-.662-.574h-4.676ZM52.113.422v5.22c0 .329-.01.62-.029.874-.016.25-.05.486-.106.709a3.591 3.591 0 0 1-.187.568c-.066.16-.166.309-.299.445a2.265 2.265 0 0 1-.404.334c-.14.086-.326.164-.557.235-.23.07-.463.125-.697.164-.234.035-.527.064-.879.088-.348.023-.695.039-1.043.046-.347.008-.767.012-1.26.012-.492 0-.914-.004-1.265-.012a23.804 23.804 0 0 1-1.05-.046 11.043 11.043 0 0 1-.878-.088 5.537 5.537 0 0 1-.691-.164 2.457 2.457 0 0 1-.557-.235 2.38 2.38 0 0 1-.398-.334 1.564 1.564 0 0 1-.3-.445 4.015 4.015 0 0 1-.181-.574 4.9 4.9 0 0 1-.105-.71c-.016-.25-.024-.538-.024-.866V.422h2.643v5.22c0 .18.008.325.023.434.02.11.063.217.129.322.07.106.164.186.281.24.121.055.287.106.498.153.215.043.471.072.768.088.3.016.67.023 1.107.023.434 0 .8-.007 1.096-.023.297-.016.553-.045.768-.088.215-.047.382-.098.504-.152a.666.666 0 0 0 .287-.24.847.847 0 0 0 .134-.323c.02-.11.03-.254.03-.433V.422h2.642Zm1.067 0h3.615l2.209 2.818c.102.137.176.301.223.492.046.188.074.34.082.457.011.118.029.176.052.176.028 0 .045-.058.053-.176.012-.117.041-.27.088-.457.047-.191.121-.355.223-.492L61.928.422h3.615l-4.899 5.613V9h-2.636V6.035L53.18.422Z"/></svg>
