<svg xmlns="http://www.w3.org/2000/svg" width="24" height="24" fill="none"><path fill="#828282" d="M11.37 19.25a.75.75 0 0 0 0 1.5v-1.5Zm9.548-8.35-.743.103.743-.104Zm.175 5.93.698.274-.698-.274Zm-2.2 2.527-.369-.653.368.653ZM17.69 4.455l.313-.682-.313.682Zm2.132 1.856-.633.403.633-.403ZM6.674 4.455l-.312-.682.312.682Zm-3.97 6.341a.75.75 0 1 0 1.485.207l-1.486-.207Zm1.839-4.485-.633-.403.633.403Zm.447 1.426.53-.53-.01-.01-.01-.01-.51.55Zm15-.858-.53-.53.53.53Zm-.858.858-.53-.53.53.53ZM2 17.25a.75.75 0 0 0 0 1.5v-1.5Zm6 1.5a.75.75 0 0 0 0-1.5v1.5Zm-6-4.5a.75.75 0 0 0 0 1.5v-1.5Zm3 1.5a.75.75 0 0 0 0-1.5v1.5Zm6.37-11h1.624v-1.5H11.37v1.5Zm1.624 14.5H11.37v1.5h1.624v-1.5Zm7.181-8.247c.22 1.583.378 2.723.425 3.621.047.89-.022 1.465-.205 1.931l1.396.55c.296-.754.358-1.575.307-2.56-.051-.976-.22-2.192-.437-3.749l-1.486.207Zm-7.18 9.747c1.571 0 2.798 0 3.773-.083.982-.085 1.787-.26 2.492-.656l-.736-1.307c-.436.245-.996.392-1.884.468-.896.077-2.047.078-3.646.078v1.5Zm7.4-4.195a4.25 4.25 0 0 1-1.87 2.149l.735 1.307a5.75 5.75 0 0 0 2.53-2.907l-1.395-.549Zm-7.4-11.805c1.245 0 2.138 0 2.844.055.696.053 1.155.156 1.538.332l.626-1.364c-.609-.279-1.264-.404-2.05-.464-.776-.06-1.736-.059-2.959-.059v1.5Zm4.382.387a4.25 4.25 0 0 1 1.812 1.577l1.265-.806a5.75 5.75 0 0 0-2.451-2.135l-.626 1.364ZM11.37 3.25c-1.223 0-2.182 0-2.959.06-.786.06-1.44.184-2.05.463l.626 1.364c.383-.176.842-.279 1.539-.332.706-.054 1.598-.055 2.844-.055v-1.5Zm-7.181 7.753c.268-1.928.419-2.98.71-3.733l-1.4-.54c-.369.955-.54 2.22-.796 4.066l1.486.207Zm.71-3.733c.08-.211.171-.392.276-.556L3.91 5.908a4.58 4.58 0 0 0-.411.822l1.4.54Zm1.463-3.497A5.75 5.75 0 0 0 3.91 5.908l1.265.806a4.25 4.25 0 0 1 1.812-1.577l-.625-1.364ZM5.5 7.188 4.71 6.45 3.687 7.55l.792.737L5.5 7.188Zm13.959-.84-.858.858 1.06 1.061.858-.858-1.06-1.06Zm-15 1.92c1.651 1.65 2.942 2.944 4.084 3.815 1.159.884 2.251 1.404 3.517 1.404v-1.5c-.806 0-1.582-.314-2.607-1.097-1.043-.795-2.252-2.002-3.934-3.684L4.46 8.267Zm14.142-1.062c-1.682 1.682-2.891 2.889-3.934 3.684-1.025.783-1.802 1.097-2.607 1.097v1.5c1.265 0 2.358-.52 3.517-1.404 1.142-.871 2.433-2.164 4.084-3.816l-1.06-1.06ZM2 18.75h6v-1.5H2v1.5Zm0-3h3v-1.5H2v1.5Zm19.661-4.954c-.277-1.995-.453-3.317-.898-4.312l-1.37.612c.337.752.491 1.81.782 3.907l1.486-.207Zm-.898-4.312a4.428 4.428 0 0 0-.309-.576l-1.265.806c.075.118.143.243.205.382l1.37-.612Zm-.243.925.089-.089-1.06-1.06-.09.088L20.52 7.41Z"/></svg>
