<svg xmlns="http://www.w3.org/2000/svg" width="32" height="32" fill="none"><path fill="#fff" d="M13.087 16a2.913 2.913 0 1 1 5.826 0 2.913 2.913 0 0 1-5.826 0Zm-1.576 0a4.488 4.488 0 0 0 4.49 4.486 4.488 4.488 0 1 0 0-8.973A4.488 4.488 0 0 0 11.51 16Zm8.107-4.664a1.048 1.048 0 1 0 1.05-1.049 1.05 1.05 0 0 0-1.05 1.049Zm-7.15 11.776c-.852-.039-1.315-.18-1.623-.3a2.717 2.717 0 0 1-1.006-.654 2.696 2.696 0 0 1-.653-1.005c-.12-.307-.262-.77-.301-1.622-.043-.921-.051-1.198-.051-3.531s.01-2.61.05-3.53c.04-.853.183-1.315.302-1.623.158-.408.348-.7.653-1.005a2.695 2.695 0 0 1 1.006-.654c.308-.12.771-.262 1.624-.3.921-.043 1.198-.051 3.532-.051 2.333 0 2.61.009 3.533.05.852.04 1.315.182 1.623.301.408.158.7.348 1.006.654.306.305.495.597.654 1.005.12.307.262.77.3 1.622.043.922.051 1.198.051 3.531s-.008 2.61-.05 3.53c-.04.853-.182 1.316-.301 1.623a2.707 2.707 0 0 1-.654 1.005 2.717 2.717 0 0 1-1.006.653c-.308.12-.771.262-1.623.3-.922.043-1.199.052-3.533.052-2.335 0-2.611-.009-3.532-.051Zm-.072-15.796c-.93.042-1.567.19-2.122.405A4.288 4.288 0 0 0 8.725 8.73a4.269 4.269 0 0 0-1.008 1.548c-.216.555-.364 1.19-.406 2.12-.043.932-.053 1.23-.053 3.603s.01 2.67.053 3.602c.042.93.19 1.566.406 2.12a4.27 4.27 0 0 0 1.008 1.549c.487.485.974.784 1.55 1.008.556.215 1.19.363 2.121.405.933.043 1.23.053 3.605.053 2.374 0 2.672-.01 3.604-.053.93-.042 1.566-.19 2.122-.405a4.3 4.3 0 0 0 1.549-1.008 4.28 4.28 0 0 0 1.008-1.548c.216-.555.364-1.19.406-2.12.043-.933.052-1.23.052-3.603s-.01-2.67-.052-3.602c-.042-.93-.19-1.566-.406-2.121a4.296 4.296 0 0 0-1.008-1.548 4.278 4.278 0 0 0-1.548-1.008c-.557-.216-1.192-.364-2.122-.405-.933-.043-1.23-.053-3.605-.053-2.374 0-2.672.01-3.605.053Z"/></svg>
