<svg xmlns="http://www.w3.org/2000/svg" width="32" height="32" fill="none"><path fill="#fff" d="M24.094 10.885a6.696 6.696 0 0 1-1.652.471c.265-.045.657-.524.813-.718.236-.292.417-.626.531-.984 0-.026.027-.064 0-.083a.091.091 0 0 0-.087 0 8.36 8.36 0 0 1-1.957.76.137.137 0 0 1-.136-.035 1.91 1.91 0 0 0-.171-.178 3.565 3.565 0 0 0-.935-.604 3.287 3.287 0 0 0-1.455-.24c-.482.03-.953.16-1.383.38a3.582 3.582 0 0 0-1.094.927c-.314.39-.54.844-.665 1.33a3.65 3.65 0 0 0-.034 1.406c0 .08 0 .09-.069.08-2.709-.4-4.931-1.36-6.747-3.424-.08-.09-.122-.09-.186 0-.79 1.2-.407 3.1.58 4.039.134.125.27.247.415.36a3.393 3.393 0 0 1-1.3-.36c-.075-.05-.117-.023-.12.068-.012.127-.012.254 0 .38a3.45 3.45 0 0 0 2.127 2.751c.138.06.282.104.429.133-.42.082-.85.095-1.273.038-.09-.019-.125.03-.09.118.558 1.52 1.77 1.983 2.659 2.241.121.02.243.02.38.05l-.023.023c-.262.478-1.322.801-1.809.968a6.501 6.501 0 0 1-2.773.358c-.148-.023-.183-.02-.22 0-.039.018 0 .06.041.098.19.126.38.236.578.342.588.321 1.21.576 1.854.76 3.336.92 7.09.243 9.593-2.245 1.968-1.953 2.66-4.647 2.66-7.344 0-.103.125-.164.197-.217a6.524 6.524 0 0 0 1.303-1.36.399.399 0 0 0 .091-.274c0-.057 0-.045-.072-.015Z"/></svg>
